<?xml version="1.0" standalone="no"?>
<!DOCTYPE svg PUBLIC "-//W3C//DTD SVG 20010904//EN"
 "http://www.w3.org/TR/2001/REC-SVG-20010904/DTD/svg10.dtd">
<svg version="1.0" xmlns="http://www.w3.org/2000/svg"
 width="1052.000000pt" height="1052.000000pt" viewBox="0 0 1052.000000 1052.000000"
 preserveAspectRatio="xMidYMid meet">
<metadata>
Created by potrace 1.14, written by Peter Selinger 2001-2017
</metadata>
<g transform="translate(0.000000,1052.000000) scale(0.100000,-0.100000)"
fill="#000000" stroke="none">
<path d="M7205 8658 c-81 -22 -228 -79 -233 -90 -2 -5 -9 -8 -17 -8 -18 0
-195 -92 -328 -171 -32 -19 -66 -38 -75 -44 -63 -37 -310 -196 -337 -217 -5
-4 -35 -26 -65 -47 -143 -102 -297 -227 -370 -301 -31 -30 -77 -73 -104 -95
-27 -22 -54 -44 -60 -50 -6 -5 -81 -68 -166 -140 -85 -71 -160 -134 -166 -140
-6 -5 -33 -28 -59 -50 -27 -22 -59 -49 -70 -60 -78 -72 -76 -71 -69 -50 4 11
10 25 14 30 10 14 23 72 25 118 3 61 -38 95 -108 87 -15 -1 -12 9 17 67 32 61
42 95 50 158 6 51 -55 103 -106 91 -10 -2 -18 -3 -18 -1 0 2 16 34 35 71 53
107 58 199 11 229 -24 16 -54 20 -103 12 -35 -6 -35 -7 -2 68 19 43 26 113 14
141 -29 70 -89 75 -201 19 -41 -21 -74 -41 -74 -46 0 -4 -8 -10 -19 -14 -10
-3 -54 -42 -97 -87 -117 -120 -124 -128 -124 -138 0 -4 -4 -10 -9 -12 -15 -5
-125 -176 -189 -293 -59 -108 -141 -295 -177 -405 -10 -30 -22 -61 -28 -67 -5
-7 -7 -13 -3 -13 3 0 -5 -30 -18 -67 -31 -89 -72 -222 -82 -268 -1 -5 -10 -37
-20 -70 -10 -33 -19 -64 -20 -70 -1 -5 -10 -37 -20 -70 -10 -33 -19 -64 -20
-70 -6 -26 -57 -151 -66 -162 -6 -7 -8 -13 -4 -13 3 0 -10 -23 -29 -50 -37
-52 -71 -90 -81 -90 -3 0 -23 -19 -45 -42 -43 -46 -79 -114 -88 -168 -7 -45
-7 -212 1 -268 5 -37 -4 -66 -14 -45 -1 5 -25 19 -53 33 -27 13 -52 27 -55 30
-3 3 -23 17 -45 30 -22 13 -43 29 -47 34 -4 6 -8 8 -8 3 0 -7 -41 27 -94 78
-32 31 -86 100 -86 109 0 10 -95 96 -107 96 -7 0 -13 4 -13 9 0 5 -25 19 -56
31 -108 44 -236 26 -397 -58 -130 -67 -203 -172 -195 -280 2 -32 12 -72 21
-91 9 -19 17 -39 17 -46 0 -19 28 -70 55 -99 13 -14 22 -26 19 -26 -3 0 3 -11
14 -25 11 -14 28 -48 38 -76 21 -59 52 -81 80 -58 18 15 17 17 97 -91 18 -25
40 -45 48 -45 13 -1 89 -68 89 -81 0 -3 6 -11 13 -18 56 -58 250 -310 312
-406 64 -98 88 -142 170 -315 40 -86 88 -172 138 -249 68 -107 332 -370 456
-456 20 -14 38 -28 39 -32 2 -5 8 -8 14 -8 5 0 20 -8 33 -19 34 -26 14 -41
-56 -41 -49 0 -57 3 -55 18 4 26 -23 39 -89 42 -157 5 -189 -1 -206 -40 -11
-23 -20 -29 -44 -28 -75 0 -325 -11 -332 -15 -9 -6 -10 -1143 -2 -1152 6 -5
190 -46 274 -61 40 -6 80 -15 97 -20 10 -3 30 -7 45 -10 16 -3 62 -12 103 -20
41 -9 87 -17 102 -19 15 -2 37 -7 49 -10 11 -4 31 -8 42 -10 12 -2 33 -6 47
-9 14 -4 59 -13 100 -20 104 -20 132 -26 153 -32 10 -3 34 -8 54 -10 20 -3 39
-6 43 -9 3 -2 29 -7 56 -11 27 -3 53 -9 58 -11 4 -3 20 -7 35 -8 14 -2 60 -10
101 -19 41 -8 86 -17 100 -20 14 -3 71 -14 128 -26 57 -12 106 -20 108 -18 2
3 5 17 6 31 1 15 6 27 10 27 4 0 4 7 1 17 -5 12 -3 14 8 8 11 -7 12 -6 3 6 -5
8 -9 25 -7 39 2 14 5 39 7 55 2 17 5 32 6 35 1 3 2 9 1 14 -1 5 4 13 11 17 8
5 9 9 2 9 -6 0 -10 12 -8 28 24 204 34 391 33 657 0 207 -4 291 -13 330 -20
83 -20 83 10 89 16 3 47 8 69 12 22 3 51 7 65 10 14 2 41 7 60 10 19 3 44 8
55 10 11 1 65 13 120 24 55 12 109 23 120 26 11 2 49 11 85 20 36 9 74 18 85
20 25 5 31 6 180 44 86 22 147 32 215 33 117 2 133 -1 245 -51 99 -44 122 -50
210 -57 59 -5 108 -9 230 -20 33 -3 87 -7 120 -10 33 -3 78 -7 100 -9 37 -4
219 -15 340 -20 52 -2 195 8 255 19 19 3 41 7 48 7 18 2 15 18 -6 26 -28 11
-212 125 -208 129 2 2 23 -1 47 -6 24 -5 60 -12 79 -15 19 -3 46 -8 60 -11 54
-12 137 -26 188 -32 45 -5 52 -3 52 12 0 30 -50 62 -134 86 -44 13 -83 24 -86
25 -3 0 -12 3 -20 6 -33 11 -231 71 -246 74 -6 1 -21 5 -34 9 -36 11 -18 15
25 4 22 -5 56 -12 75 -15 19 -3 38 -8 41 -10 6 -3 57 -13 99 -19 8 -1 31 -5
50 -9 19 -3 46 -8 60 -10 14 -3 27 -5 30 -7 3 -1 14 -2 25 -3 11 -1 40 -5 65
-10 117 -20 169 -26 273 -30 135 -5 94 30 -148 124 -45 18 -229 76 -267 86 -5
1 -10 3 -13 4 -3 1 -8 3 -12 4 -5 1 -24 6 -43 10 -19 5 -41 12 -50 16 -8 4
-89 31 -180 60 -164 51 -290 94 -385 131 -28 10 -57 19 -66 19 -8 0 -19 4 -25
8 -5 5 -38 19 -74 31 -36 13 -74 27 -85 32 -47 20 -201 80 -215 84 -16 4 -99
40 -190 82 -30 14 -104 58 -165 98 -60 39 -177 113 -260 165 -139 87 -198 127
-150 102 11 -5 23 -11 27 -11 7 -2 31 -11 93 -36 11 -5 22 -9 25 -10 3 -1 38
-11 78 -24 40 -12 87 -24 105 -27 113 -18 277 -24 330 -10 33 8 36 34 6 60
-48 41 -208 156 -218 156 -5 0 -11 3 -13 8 -5 11 -80 58 -106 66 -42 14 -22
23 45 20 72 -3 93 6 93 39 0 26 -43 89 -95 140 -32 31 -35 38 -17 32 12 -3 32
-8 45 -9 12 -2 38 -6 57 -10 19 -4 49 -9 65 -11 17 -2 30 -5 30 -6 0 -4 62 -7
155 -9 105 -3 194 13 230 40 20 15 21 20 10 41 -31 60 -145 126 -306 178 l-88
28 57 -1 c31 -1 57 -3 57 -6 0 -6 90 -4 170 4 116 11 224 61 226 104 2 31 -62
92 -130 125 -31 15 -56 29 -56 30 0 1 51 2 113 3 70 0 123 6 142 14 17 7 34
14 38 14 5 1 15 10 23 20 13 18 11 23 -13 49 -16 16 -47 42 -71 57 l-42 28 57
-1 c86 -2 157 10 203 34 22 12 42 25 45 30 11 17 -35 86 -81 122 -43 33 -80
53 -212 113 l-42 19 136 -1 c123 -1 156 3 219 27 11 4 28 10 37 13 9 2 21 14
27 24 8 16 5 25 -17 48 -15 16 -46 38 -67 49 -22 11 -43 24 -46 28 -3 5 -10 8
-15 8 -12 -1 -106 30 -102 34 2 1 37 5 80 8 87 7 114 12 178 35 56 19 100 49
100 67 0 17 -51 60 -93 79 -41 19 -174 55 -181 50 -3 -2 -3 -1 0 3 3 4 31 8
62 9 31 1 57 3 57 4 0 1 18 3 40 6 67 8 137 32 188 64 41 25 47 34 42 53 -10
34 -74 83 -132 103 -29 10 -53 21 -53 24 0 3 19 6 43 6 120 3 260 44 295 87
10 11 8 20 -8 40 -19 23 -98 69 -128 73 -25 4 -26 14 -1 16 29 1 36 2 74 11
17 4 40 9 53 12 33 6 122 57 122 69 0 41 -95 98 -199 121 -33 8 -54 13 -83 20
-25 7 -77 13 -122 14 -25 1 -16 10 15 16 69 13 89 18 144 37 78 27 89 33 136
75 31 28 37 38 29 53 -29 54 -186 103 -333 103 -48 0 -39 8 48 36 93 31 179
77 222 120 l35 35 -23 16 c-12 10 -43 22 -68 28 -50 12 -262 8 -348 -6 -61
-10 -70 0 -15 16 106 32 316 153 370 214 46 51 47 67 7 84 -51 21 -224 7 -315
-26 -14 -5 -37 -11 -52 -14 -14 -2 -36 -10 -48 -16 -12 -6 -24 -10 -26 -7 -3
2 26 24 63 48 84 54 192 141 256 205 76 76 125 172 96 190 -25 15 -136 11
-204 -8z m-10 -4736 c-3 -3 -11 0 -18 7 -9 10 -8 11 6 5 10 -3 15 -9 12 -12z
m35 -2 c0 -5 -2 -10 -4 -10 -3 0 -8 5 -11 10 -3 6 -1 10 4 10 6 0 11 -4 11
-10z m-3550 -224 c0 -2 -7 -7 -16 -10 -8 -3 -12 -2 -9 4 6 10 25 14 25 6z"/>
</g>
</svg>
